<svg width="73" height="45" viewBox="0 0 73 45" fill="none" xmlns="http://www.w3.org/2000/svg">
<path d="M72.1769 35.8328H63.4341V44.0526H72.1769V35.8328Z" fill="#BE5C33"/>
<path d="M54.9483 12.1405L45.1769 25.1954V36.0745H54.9483V12.1405Z" fill="#2A3568"/>
<path d="M54.9483 12.1405L45.1769 25.1954V36.0745H54.9483V12.1405Z" fill="#4B5DA8"/>
<path d="M0.17691 0.0525589L0.17691 4.88772H4.03405L0.17691 0.0525589Z" fill="#0DB4B2"/>
<path d="M0.17691 0.0525589L0.17691 4.88772H4.03405L0.17691 0.0525589Z" fill="#056463"/>
<path fill-rule="evenodd" clip-rule="evenodd" d="M0.17691 0.0525589L12.0055 0.0525589L30.5198 25.6789L48.5198 0.0525589L60.3483 0.0525589L56.4912 4.88772L30.2626 40.9097L4.03405 4.88772L0.17691 0.0525589Z" fill="#0DB4B2"/>
<path d="M56.4912 4.88772H60.3483V0.0525589L56.4912 4.88772Z" fill="#0DB4B2"/>
<path d="M56.4912 4.88772H60.3483V0.0525589L56.4912 4.88772Z" fill="#056463"/>
<path d="M5.57691 12.3822L5.83405 36.0745H15.6055L15.6055 25.1954L5.57691 12.3822Z" fill="#2A3568"/>
<path d="M5.57691 12.3822L5.83405 36.0745H15.6055L15.6055 25.1954L5.57691 12.3822Z" fill="#4B5DA8"/>
<path d="M15.6055 36.0745H5.83405H0.17691L0.17691 44.0526H20.7483V36.0745H15.6055Z" fill="#2A3568"/>
<path d="M60.3483 35.8328H39.7769V44.0526H60.3483V35.8328Z" fill="#2A3568"/>
</svg>
