<svg width="1442" height="573" viewBox="0 0 1442 573" fill="none" xmlns="http://www.w3.org/2000/svg">
<path d="M547.829 30.902L543.277 68.8983L556.076 91.0077L575.987 79.5426L547.829 30.902Z" fill="#2A3568"/>
<path d="M547.829 30.902L543.277 68.8983L556.076 91.0077L575.987 79.5426L547.829 30.902Z" fill="#0DB4B2"/>
<path d="M422 70.6011L427.688 80.4275L435.548 75.9017L422 70.6011Z" fill="#0DB4B2"/>
<path d="M422 70.6011L427.688 80.4275L435.548 75.9017L422 70.6011Z" fill="#056463"/>
<path fill-rule="evenodd" clip-rule="evenodd" d="M422 70.6011L446.103 56.7222L513.978 87.0787L520.509 13.8789L544.612 0L542.44 14.3522L531.373 118.333L435.548 75.9017L422 70.6011Z" fill="#0DB4B2"/>
<path d="M542.44 14.3522L550.3 9.82641L544.612 0L542.44 14.3522Z" fill="#0DB4B2"/>
<path d="M542.44 14.3522L550.3 9.82641L544.612 0L542.44 14.3522Z" fill="#056463"/>
<path d="M447.509 89.3223L475.906 137.17L495.818 125.705L483.019 103.595L447.509 89.3223Z" fill="#2A3568"/>
<path d="M447.509 89.3223L475.906 137.17L495.818 125.705L483.019 103.595L447.509 89.3223Z" fill="#0DB4B2"/>
<path d="M495.818 125.705L475.906 137.17L464.379 143.808L473.765 160.021L515.683 135.884L506.297 119.671L495.818 125.705Z" fill="#056463"/>
<path d="M586.706 72.7152L544.788 96.8523L554.458 113.557L596.376 89.4199L586.706 72.7152Z" fill="#056463"/>
<path d="M724 365L705 286L539 335L724 365Z" fill="#077B7A" stroke="black" stroke-linejoin="bevel"/>
<path d="M705 286L617 201L539 335L705 286Z" fill="#056463" stroke="black" stroke-linejoin="bevel"/>
<path d="M539 335L571 488L724 365L539 335Z" fill="#0A9B99" stroke="black" stroke-linejoin="bevel"/>
<path d="M571 488L723 494L724 365L571 488Z" fill="#078381" stroke="black" stroke-linejoin="bevel"/>
<path d="M466 244L454 360L539 335L466 244Z" fill="#099391" stroke="black" stroke-linejoin="bevel"/>
<path d="M539 335L454 360L571 488L539 335Z" fill="#056463" stroke="black" stroke-linejoin="bevel"/>
<path d="M617 201L466 244L539 335L617 201Z" fill="#056C6A" stroke="black" stroke-linejoin="bevel"/>
<path d="M680 132H621L617 201L680 132Z" fill="#056463" stroke="black" stroke-linejoin="bevel"/>
<path d="M617 201L621 132L466 244L617 201Z" fill="#077B7A" stroke="black" stroke-linejoin="bevel"/>
<path d="M865 198L680 132L705 286L865 198Z" fill="#077B7A" stroke="black" stroke-linejoin="bevel"/>
<path d="M705 286L680 132L617 201L705 286Z" fill="#088B89" stroke="black" stroke-linejoin="bevel"/>
<path d="M723 494L853 383L724 365L723 494Z" fill="#088B89" stroke="black" stroke-linejoin="bevel"/>
<path d="M724 365L853 383L705 286L724 365Z" fill="#077B7A" stroke="black" stroke-linejoin="bevel"/>
<path d="M571 488L680 572L723 494L571 488Z" fill="#0BA3A1" stroke="black" stroke-linejoin="bevel"/>
<path d="M723 494L900 424L853 383L723 494Z" fill="#0CACAA" stroke="black" stroke-linejoin="bevel"/>
<path d="M327 356L430 470L454 360L327 356Z" fill="#077B7A" stroke="black" stroke-linejoin="bevel"/>
<path d="M454 360L430 470L571 488L454 360Z" fill="#099391" stroke="black" stroke-linejoin="bevel"/>
<path d="M571 488L546 572H680L571 488Z" fill="#0DB4B2" stroke="black" stroke-linejoin="bevel"/>
<path d="M430 470L546 572L571 488L430 470Z" fill="#078381" stroke="black" stroke-linejoin="bevel"/>
<path d="M853 383L865 198L705 286L853 383Z" fill="#0BA3A1" stroke="black" stroke-linejoin="bevel"/>
<path d="M883 572L900 424L723 494L883 572Z" fill="#078381" stroke="black" stroke-linejoin="bevel"/>
<path d="M853 383L974 260L865 198L853 383Z" fill="#099391" stroke="black" stroke-linejoin="bevel"/>
<path d="M621 132H425L466 244L621 132Z" fill="#0CACAA" stroke="black" stroke-linejoin="bevel"/>
<path d="M466 244L327 356L454 360L466 244Z" fill="#0CACAA" stroke="black" stroke-linejoin="bevel"/>
<path d="M287 253L327 356L466 244L287 253Z" fill="#0A9B99" stroke="black" stroke-linejoin="bevel"/>
<path d="M324 572H387L430 470L324 572Z" fill="#067372" stroke="black" stroke-linejoin="bevel"/>
<path d="M430 470L387 572H546L430 470Z" fill="#088B89" stroke="black" stroke-linejoin="bevel"/>
<path d="M900 424L974 260L853 383L900 424Z" fill="#099391" stroke="black" stroke-linejoin="bevel"/>
<path d="M1013 391L974 260L900 424L1013 391Z" fill="#056463" stroke="black" stroke-linejoin="bevel"/>
<path d="M425 132L287 253L466 244L425 132Z" fill="#056C6A" stroke="black" stroke-linejoin="bevel"/>
<path d="M327 356L281 456L430 470L327 356Z" fill="#078381" stroke="black" stroke-linejoin="bevel"/>
<path d="M176 311L281 456L327 356L176 311Z" fill="#067372" stroke="black" stroke-linejoin="bevel"/>
<path d="M425 132H320L287 253L425 132Z" fill="#067372" stroke="black" stroke-linejoin="bevel"/>
<path d="M281 456L324 572L430 470L281 456Z" fill="#078381" stroke="black" stroke-linejoin="bevel"/>
<path d="M1038 470L1013 391L900 424L1038 470Z" fill="#078381" stroke="black" stroke-linejoin="bevel"/>
<path d="M883 572H972L900 424L883 572Z" fill="#067372" stroke="black" stroke-linejoin="bevel"/>
<path d="M1109 325L999 132L974 260L1109 325Z" fill="#0BA3A1" stroke="black" stroke-linejoin="bevel"/>
<path d="M974 260L999 132L865 198L974 260Z" fill="#0CACAA" stroke="black" stroke-linejoin="bevel"/>
<path d="M972 572L1038 470L900 424L972 572Z" fill="#056463" stroke="black" stroke-linejoin="bevel"/>
<path d="M1013 391L1109 325L974 260L1013 391Z" fill="#0DB4B2" stroke="black" stroke-linejoin="bevel"/>
<path d="M182 226L176 311L287 253L182 226Z" fill="#099391" stroke="black" stroke-linejoin="bevel"/>
<path d="M287 253L176 311L327 356L287 253Z" fill="#0BA3A1" stroke="black" stroke-linejoin="bevel"/>
<path d="M281 456L172 481L324 572L281 456Z" fill="#0DB4B2" stroke="black" stroke-linejoin="bevel"/>
<path d="M320 132L182 226L287 253L320 132Z" fill="#056C6A" stroke="black" stroke-linejoin="bevel"/>
<path d="M1038 470L1109 325L1013 391L1038 470Z" fill="#0A9B99" stroke="black" stroke-linejoin="bevel"/>
<path d="M176 311L172 481L281 456L176 311Z" fill="#0CACAA" stroke="black" stroke-linejoin="bevel"/>
<path d="M972 572H1124L1038 470L972 572Z" fill="#056C6A" stroke="black" stroke-linejoin="bevel"/>
<path d="M1038 470L1169 463L1109 325L1038 470Z" fill="#0A9B99" stroke="black" stroke-linejoin="bevel"/>
<path d="M1124 572L1169 463L1038 470L1124 572Z" fill="#078381" stroke="black" stroke-linejoin="bevel"/>
<path d="M1 236V360L176 311L1 236Z" fill="#067372" stroke="black" stroke-linejoin="bevel"/>
<path d="M1 432L104 572L172 481L1 432Z" fill="#0CACAA" stroke="black" stroke-linejoin="bevel"/>
<path d="M1253 337L1181 284L1109 325L1253 337Z" fill="#0CACAA" stroke="black" stroke-linejoin="bevel"/>
<path d="M1109 325L1164 132H999L1109 325Z" fill="#0A9B99" stroke="black" stroke-linejoin="bevel"/>
<path d="M1181 284L1164 132L1109 325L1181 284Z" fill="#088B89" stroke="black" stroke-linejoin="bevel"/>
<path d="M1 360L172 481L176 311L1 360Z" fill="#0BA3A1" stroke="black" stroke-linejoin="bevel"/>
<path d="M1169 463L1253 337L1109 325L1169 463Z" fill="#088B89" stroke="black" stroke-linejoin="bevel"/>
<path d="M1181 284L1280 266L1164 132L1181 284Z" fill="#088B89" stroke="black" stroke-linejoin="bevel"/>
<path d="M1290 444L1253 337L1169 463L1290 444Z" fill="#0BA3A1" stroke="black" stroke-linejoin="bevel"/>
<path d="M1 236L176 311L182 226L1 236Z" fill="#078381" stroke="black" stroke-linejoin="bevel"/>
<path d="M1 360V432L172 481L1 360Z" fill="#0DB4B2" stroke="black" stroke-linejoin="bevel"/>
<path d="M124 132L1 236L182 226L124 132Z" fill="#078381" stroke="black" stroke-linejoin="bevel"/>
<path d="M1253 337L1280 266L1181 284L1253 337Z" fill="#077B7A" stroke="black" stroke-linejoin="bevel"/>
<path d="M1287 572L1290 444L1169 463L1287 572Z" fill="#0BA3A1" stroke="black" stroke-linejoin="bevel"/>
<path d="M1253 337L1441 388L1280 266L1253 337Z" fill="#099391" stroke="black" stroke-linejoin="bevel"/>
<path d="M124 132H1V236L124 132Z" fill="#078381" stroke="black" stroke-linejoin="bevel"/>
<path d="M1 432V572H104L1 432Z" fill="#099391" stroke="black" stroke-linejoin="bevel"/>
<path d="M1124 572H1287L1169 463L1124 572Z" fill="#0DB4B2" stroke="black" stroke-linejoin="bevel"/>
<path d="M1441 388L1253 337L1290 444L1441 388Z" fill="#077B7A" stroke="black" stroke-linejoin="bevel"/>
<path d="M1441 255L1318 132L1280 266L1441 255Z" fill="#077B7A" stroke="black" stroke-linejoin="bevel"/>
<path d="M1280 266L1318 132H1164L1280 266Z" fill="#0DB4B2" stroke="black" stroke-linejoin="bevel"/>
<path d="M1441 440V388L1290 444L1441 440Z" fill="#077B7A" stroke="black" stroke-linejoin="bevel"/>
<path d="M1441 388V255L1280 266L1441 388Z" fill="#0CACAA" stroke="black" stroke-linejoin="bevel"/>
<path d="M1441 572V440L1290 444L1441 572Z" fill="#099391" stroke="black" stroke-linejoin="bevel"/>
</svg>
