<svg id="visual" viewBox="0 0 1440 220" width="1440" height="220" xmlns="http://www.w3.org/2000/svg" xmlns:xlink="http://www.w3.org/1999/xlink" version="1.1"><g stroke-width="1" stroke-linejoin="bevel"><path d="M758 147L719 220L851 220Z" fill="#0db4b2" stroke="#000"></path><path d="M851 220L906 87L758 147Z" fill="#056c6a" stroke="#000"></path><path d="M583 88L589 220L719 220Z" fill="#078381" stroke="#000"></path><path d="M894 0L684 0L758 147Z" fill="#077b7a" stroke="#000"></path><path d="M758 147L583 88L719 220Z" fill="#077b7a" stroke="#000"></path><path d="M684 0L583 88L758 147Z" fill="#056463" stroke="#000"></path><path d="M906 87L894 0L758 147Z" fill="#077b7a" stroke="#000"></path><path d="M851 220L1054 220L906 87Z" fill="#056c6a" stroke="#000"></path><path d="M906 87L1008 0L894 0Z" fill="#056c6a" stroke="#000"></path><path d="M1054 220L1030 93L906 87Z" fill="#0db4b2" stroke="#000"></path><path d="M1030 93L1008 0L906 87Z" fill="#0cacaa" stroke="#000"></path><path d="M684 0L535 0L583 88Z" fill="#0cacaa" stroke="#000"></path><path d="M583 88L445 103L589 220Z" fill="#0a9b99" stroke="#000"></path><path d="M1054 220L1115 220L1030 93Z" fill="#0a9b99" stroke="#000"></path><path d="M1030 93L1123 0L1008 0Z" fill="#099391" stroke="#000"></path><path d="M535 0L445 103L583 88Z" fill="#077b7a" stroke="#000"></path><path d="M445 103L415 220L589 220Z" fill="#099391" stroke="#000"></path><path d="M535 0L473 0L445 103Z" fill="#056463" stroke="#000"></path><path d="M1115 220L1160 87L1030 93Z" fill="#056463" stroke="#000"></path><path d="M1160 87L1123 0L1030 93Z" fill="#088b89" stroke="#000"></path><path d="M281 0L293 101L445 103Z" fill="#0a9b99" stroke="#000"></path><path d="M445 103L293 101L415 220Z" fill="#067372" stroke="#000"></path><path d="M293 101L268 220L415 220Z" fill="#0ba3a1" stroke="#000"></path><path d="M1344 89L1286 0L1160 87Z" fill="#0cacaa" stroke="#000"></path><path d="M1160 87L1286 0L1123 0Z" fill="#099391" stroke="#000"></path><path d="M1115 220L1330 220L1160 87Z" fill="#0a9b99" stroke="#000"></path><path d="M473 0L281 0L445 103Z" fill="#056c6a" stroke="#000"></path><path d="M141 147L160 220L268 220Z" fill="#056463" stroke="#000"></path><path d="M1330 220L1344 89L1160 87Z" fill="#099391" stroke="#000"></path><path d="M141 147L268 220L293 101Z" fill="#0db4b2" stroke="#000"></path><path d="M141 0L141 147L293 101Z" fill="#0cacaa" stroke="#000"></path><path d="M1330 220L1440 151L1344 89Z" fill="#0ba3a1" stroke="#000"></path><path d="M1344 89L1440 0L1286 0Z" fill="#0ba3a1" stroke="#000"></path><path d="M1440 220L1440 151L1330 220Z" fill="#077b7a" stroke="#000"></path><path d="M281 0L141 0L293 101Z" fill="#088b89" stroke="#000"></path><path d="M1440 151L1440 0L1344 89Z" fill="#077b7a" stroke="#000"></path><path d="M141 147L0 220L160 220Z" fill="#056463" stroke="#000"></path><path d="M0 93L0 220L141 147Z" fill="#056463" stroke="#000"></path><path d="M141 0L0 93L141 147Z" fill="#056c6a" stroke="#000"></path><path d="M141 0L0 0L0 93Z" fill="#0cacaa" stroke="#000"></path></g></svg>